<svg version="1.2" xmlns="http://www.w3.org/2000/svg" viewBox="0 0 775 180" width="775" height="180">
	<style>
		.s0 { fill: #f0624a } 
		.s1 { fill: #093757 } 
		.s2 { fill: #fefefe } 
	</style>
	<g id="&lt;Group&gt;">
		<path id="&lt;Path&gt;" fill-rule="evenodd" class="s0" d="m749.93 49.5c-13.74 0-24.85-11.11-24.85-24.85 0-13.75 11.11-24.86 24.85-24.86 13.75 0 24.86 11.11 24.86 24.86 0 13.74-11.11 24.85-24.86 24.85z"/>
		<path id="&lt;Path&gt;" class="s0" d="m490.78 152.96l-7.86 12.61v8.59h-2.16v-8.59l-7.86-12.61h2.38l6.59 10.66 6.54-10.66z"/>
		<path id="&lt;Compound Path&gt;" fill-rule="evenodd" class="s0" d="m489.97 166.6c0.02-1.53 0.5-3.01 1.36-4.27 0.86-1.25 2.07-2.23 3.49-2.79 1.41-0.57 2.96-0.71 4.45-0.4 1.49 0.31 2.86 1.05 3.94 2.13 1.07 1.09 1.79 2.46 2.09 3.96 0.29 1.49 0.14 3.04-0.45 4.45-0.58 1.4-1.57 2.61-2.83 3.46-1.27 0.85-2.76 1.3-4.28 1.31-1.04 0.05-2.08-0.11-3.06-0.49-0.97-0.38-1.85-0.96-2.58-1.7-0.74-0.74-1.31-1.63-1.67-2.6-0.37-0.98-0.52-2.02-0.46-3.06zm13.3 0c0-3.67-2.22-6.08-5.53-6.08-1.52 0.14-2.93 0.84-3.95 1.97-1.03 1.12-1.6 2.59-1.6 4.11 0 1.53 0.57 2.99 1.6 4.12 1.02 1.12 2.43 1.82 3.95 1.96 3.31 0 5.53-2.44 5.53-6.08z"/>
		<path id="&lt;Path&gt;" class="s0" d="m508.92 168.38v-9.37h2.07v9.17c0.07 1.17 0.59 2.28 1.45 3.08 0.86 0.81 1.99 1.26 3.17 1.26 1.18 0 2.31-0.45 3.17-1.26 0.85-0.8 1.37-1.91 1.44-3.08v-9.17h2.07v9.37c0 3.63-2.67 6.07-6.72 6.07-4.06 0-6.65-2.41-6.65-6.07z"/>
		<path id="&lt;Path&gt;" class="s0" d="m547.4 154.77h-6.81v19.39h-2.19v-19.39h-6.84v-1.81h15.84z"/>
		<path id="&lt;Path&gt;" class="s0" d="m563.84 164.59v9.54h-2.06v-9.1c-0.08-1.22-0.61-2.37-1.51-3.21-0.89-0.85-2.07-1.31-3.29-1.31-1.23 0-2.41 0.46-3.3 1.31-0.89 0.84-1.43 1.99-1.51 3.21v9.13h-2.05v-22.35h2.05v9.72c0.56-0.93 1.36-1.69 2.32-2.18 0.97-0.5 2.05-0.71 3.13-0.62q1.22-0.11 2.38 0.29 1.16 0.4 2.06 1.24 0.88 0.84 1.35 1.98 0.47 1.13 0.43 2.35z"/>
		<path id="&lt;Compound Path&gt;" class="s0" d="m568 153.81q0-0.42 0.23-0.78 0.23-0.35 0.62-0.52 0.39-0.16 0.81-0.08 0.41 0.08 0.71 0.37 0.31 0.3 0.39 0.72 0.08 0.42-0.07 0.81-0.17 0.39-0.52 0.63-0.35 0.23-0.77 0.23-0.28 0.01-0.54-0.09-0.26-0.1-0.46-0.3-0.19-0.19-0.3-0.45-0.11-0.26-0.1-0.54zm0.37 5.2h2.05v15.14h-2.05z"/>
		<path id="&lt;Path&gt;" class="s0" d="m588.88 164.59v9.54h-2.06v-9.1c-0.08-1.22-0.62-2.37-1.51-3.21-0.89-0.85-2.07-1.31-3.3-1.31-1.22 0-2.4 0.46-3.29 1.31-0.9 0.84-1.43 1.99-1.5 3.21v9.13h-2.07v-15.13h2.01v2.54c0.56-0.93 1.38-1.69 2.35-2.19 0.96-0.5 2.05-0.72 3.14-0.64q1.22-0.1 2.37 0.29 1.16 0.41 2.06 1.24 0.89 0.84 1.36 1.97 0.47 1.13 0.44 2.35z"/>
		<path id="&lt;Path&gt;" class="s0" d="m598.51 167.07h-3.08v7.09h-2.05v-22.35h2.05v13.46h3.08l5.81-6.33h2.61l-6.73 7.17 7.05 7.99h-2.64z"/>
		<path id="&lt;Path&gt;" class="s0" d="m609.75 171.84h2.46l-2.25 6.48h-2.09z"/>
		<path id="&lt;Path&gt;" class="s0" d="m652.16 152.96l-7.56 21.2h-2.07l-5.94-17.97-5.92 18.02h-2.05l-7.58-21.2h2.37l6.39 18.28 5.82-18.28h2.08l5.77 18.31 6.37-18.28z"/>
		<path id="&lt;Compound Path&gt;" fill-rule="evenodd" class="s0" d="m666.78 167.35h-12.09c0.27 3.37 2.03 5.43 5.04 5.43 0.97 0 1.91-0.24 2.77-0.69 0.85-0.44 1.59-1.09 2.14-1.88l1.57 0.89c-0.71 1.06-1.68 1.93-2.81 2.52-1.13 0.58-2.39 0.88-3.67 0.85-4.32 0-7.24-3.15-7.24-7.88 0-4.72 2.87-7.85 7.19-7.85 4.33 0 7.13 3.06 7.13 7.67q0.01 0.47-0.03 0.94zm-12.09-1.46h9.97c-0.17-3.36-2.05-5.5-5.05-5.5-2.99 0-4.72 2.12-4.92 5.5z"/>
		<path id="&lt;Compound Path&gt;" fill-rule="evenodd" class="s0" d="m696.01 163.62c0 6.3-4.11 10.54-10.3 10.54h-7.2v-21.2h7.2c6.19 0 10.3 4.23 10.3 10.66zm-2.28 0c0-5.33-3.26-8.85-8.19-8.85h-4.84v17.59h4.93c4.84 0 8.1-3.53 8.1-8.74z"/>
		<path id="&lt;Compound Path&gt;" class="s0" d="m699.52 153.81q0-0.42 0.23-0.78 0.23-0.35 0.62-0.52 0.39-0.16 0.81-0.08 0.41 0.08 0.72 0.37 0.29 0.3 0.38 0.72 0.08 0.42-0.07 0.81-0.17 0.39-0.52 0.63-0.35 0.23-0.78 0.23-0.27 0.01-0.53-0.1-0.25-0.1-0.45-0.29-0.2-0.2-0.31-0.45-0.1-0.26-0.1-0.54zm0.37 5.2h2.07v15.14h-2.07z"/>
		<path id="&lt;Compound Path&gt;" fill-rule="evenodd" class="s0" d="m721.06 151.81v22.35h-2v-3.26c-0.53 1.13-1.4 2.07-2.47 2.7-1.08 0.64-2.32 0.93-3.57 0.85-4.23 0-7.28-3.13-7.28-7.82 0-4.69 3.05-7.9 7.28-7.9 1.25-0.09 2.49 0.21 3.57 0.84 1.07 0.63 1.94 1.57 2.47 2.7v-10.46zm-2.06 14.78c0-3.63-2.23-6.07-5.56-6.07-3.33 0-5.58 2.44-5.58 6.11q-0.11 1.17 0.26 2.29 0.38 1.12 1.18 1.99 0.8 0.86 1.88 1.33 1.08 0.46 2.26 0.44c3.33 0 5.56-2.44 5.56-6.09z"/>
		<path id="&lt;Path&gt;" class="s0" d="m725.1 172.9c0-0.41 0.16-0.8 0.45-1.09 0.29-0.29 0.68-0.46 1.09-0.46q0.48 0.01 0.87 0.26 0.38 0.27 0.56 0.7 0.18 0.43 0.09 0.89-0.09 0.46-0.42 0.8-0.33 0.32-0.79 0.42-0.46 0.09-0.9-0.09-0.43-0.18-0.69-0.57-0.26-0.39-0.26-0.86z"/>
		<path id="&lt;Path&gt;" class="s1" d="m0.52 130.89v-98.15h22.67v9.09c9.08-9.69 13.82-11.78 23.54-11.78 11.13 0 20 4.95 26.39 14.63 3.24-4.62 7.56-8.37 12.6-10.92 5.03-2.55 10.61-3.82 16.25-3.71 22.07 0 33.2 13.46 33.2 40.19v60.54h-22.92v-54.31c0-19.17-4.32-25.98-14.85-25.98-12.56 0-17.84 8.86-17.84 29.68v50.72h-22.97v-54.22c0-17.52-4.95-26.18-15.14-26.18-12.56 0-18.35 9.06-18.35 29.68v50.72z"/>
		<path id="&lt;Compound Path&gt;" fill-rule="evenodd" class="s0" d="m240.72-0.21v108.74h16.48v21.22h-16.48v22.06h-23.55v-22.06h-76.22zm-59.16 108.74h35.65l-0.46-47.26z"/>
		<path id="&lt;Compound Path&gt;" fill-rule="evenodd" class="s1" d="m383.99 44.12c7.32-7.34 16.66-12.35 26.82-14.39 10.17-2.03 20.71-1 30.29 2.96 9.58 3.96 17.77 10.68 23.54 19.3 5.75 8.62 8.82 18.76 8.82 29.13 0.12 6.86-1.17 13.68-3.79 20.03-2.63 6.35-6.53 12.09-11.47 16.86-4.93 4.87-10.8 8.69-17.24 11.24-6.45 2.55-13.34 3.78-20.27 3.61-6.83 0.13-13.61-1.15-19.92-3.75-6.31-2.61-12.02-6.48-16.78-11.38-10.09-10.09-15.05-22.69-15.05-37.52-0.1-6.73 1.19-13.4 3.78-19.61 2.59-6.21 6.42-11.82 11.27-16.48zm66.38 36.9c0-17.44-13.04-31.53-29.17-31.53-16.13 0-29.17 14.09-29.17 31.53 0 17.45 13.04 31.54 29.17 31.54 16.13 0 29.17-14.09 29.17-31.54z"/>
		<path id="&lt;Path&gt;" class="s1" d="m489.4 29.09h22.69v56.26c0 16.3 6.38 24.54 19.17 24.54 12.78 0 19.37-8.24 19.37-24.54v-56.26h22.67v56.89c0 27.41-15.06 44.11-42.04 44.11-25.56 0-41.86-15.14-41.86-44.11z"/>
		<path id="&lt;Path&gt;" class="s1" d="m643.23 34.54h-26.55v-5.45h-22.68v98.12h22.68v-50.92q0-1.35 0-2.62v-17.78h26.5z"/>
		<path id="&lt;Path&gt;" class="s1" d="m686.76 87.98c-20.77-5.79-29.13-16.06-27.63-32.56 0.65-7.5 4.29-13.7 11.35-18.63 7.08-5.15 15.66-7.85 24.41-7.7 19.71 0 35.32 9.63 36.41 29.54h-20.99c-0.85-7.06-7.06-10.71-14.56-10.71-5.78 0-12.21 2.15-14.12 5.57-0.83 1.33-1.33 2.84-1.48 4.4-0.15 1.56 0.06 3.13 0.62 4.59q1.58 4.81 12.21 7.72l15.42 3.85c17.34 4.29 26.11 13.93 26.11 29.13 0 18.85-16.47 30.27-39.82 30.27-9.58 0.11-18.94-2.99-26.57-8.8-3.7-2.78-6.7-6.41-8.75-10.58-2.05-4.16-3.08-8.75-3.02-13.4h20.35c1.06 8.78 8.41 14.35 19.69 14.35 10.3 0 17.78-4.49 17.78-11.99 0-5.79-4.71-9.64-13.91-11.77z"/>
		<path id="&lt;Path&gt;" class="s1" d="m343.79 29.09l-28.04 56.47-29.88-56.47h-26.4l44.12 80.01-23.24 43.49h25.23l63.68-123.5z"/>
		<path id="&lt;Path&gt;" fill-rule="evenodd" class="s2" d="m743.86 14.26v21.74h-4.89v-21.74z"/>
		<path id="&lt;Path&gt;" class="s2" d="m765 14.26v4.17h-6.56v17.57h-4.89v-17.57h-6.56v-4.17z"/>
	</g>
</svg>